<mxfile host="app.diagrams.net" modified="2024-08-02T22:32:32.777Z" agent="Mozilla/5.0 (Windows NT 10.0; Win64; x64) AppleWebKit/537.36 (KHTML, like Gecko) Chrome/123.0.0.0 Safari/537.36" etag="VbQ1sOItFL9lsU-BsXqR" version="24.6.4" type="onedrive">
  <diagram id="4BjaC1m4SOX0P07N7Br8" name="Linea de tiempo">
    <mxGraphModel grid="0" page="1" gridSize="10" guides="1" tooltips="1" connect="1" arrows="1" fold="1" pageScale="1" pageWidth="1169" pageHeight="827" math="0" shadow="0">
      <root>
        <mxCell id="0" />
        <mxCell id="1" parent="0" />
        <mxCell id="JtNahA1jcwBHOo8iho_V-3" value="" style="rounded=1;whiteSpace=wrap;html=1;" vertex="1" parent="1">
          <mxGeometry x="16" y="17" width="1295" height="492" as="geometry" />
        </mxCell>
        <mxCell id="CF9B0NUYfr-MQ1ip8N0y-1" value="" style="line;strokeWidth=2;html=1;fillColor=none;fontSize=28;hachureGap=4;fontFamily=Architects Daughter;fontSource=https%3A%2F%2Ffonts.googleapis.com%2Fcss%3Ffamily%3DArchitects%2BDaughter;labelBackgroundColor=none;labelBorderColor=default;textShadow=1;whiteSpace=wrap;rounded=1;" vertex="1" parent="1">
          <mxGeometry x="46" y="290" width="1233" height="10" as="geometry" />
        </mxCell>
        <mxCell id="CF9B0NUYfr-MQ1ip8N0y-6" value="" style="ellipse;whiteSpace=wrap;html=1;fontSize=28;strokeWidth=3;hachureGap=4;fontFamily=Architects Daughter;fontSource=https%3A%2F%2Ffonts.googleapis.com%2Fcss%3Ffamily%3DArchitects%2BDaughter;labelBackgroundColor=none;rounded=1;" vertex="1" parent="1">
          <mxGeometry x="100" y="285" width="20" height="20" as="geometry" />
        </mxCell>
        <mxCell id="CF9B0NUYfr-MQ1ip8N0y-7" value="" style="ellipse;whiteSpace=wrap;html=1;fontSize=28;strokeWidth=3;hachureGap=4;fontFamily=Architects Daughter;fontSource=https%3A%2F%2Ffonts.googleapis.com%2Fcss%3Ffamily%3DArchitects%2BDaughter;labelBackgroundColor=none;rounded=1;" vertex="1" parent="1">
          <mxGeometry x="187" y="285" width="20" height="20" as="geometry" />
        </mxCell>
        <mxCell id="CF9B0NUYfr-MQ1ip8N0y-8" value="" style="ellipse;whiteSpace=wrap;html=1;fontSize=28;strokeWidth=3;hachureGap=4;fontFamily=Architects Daughter;fontSource=https%3A%2F%2Ffonts.googleapis.com%2Fcss%3Ffamily%3DArchitects%2BDaughter;labelBackgroundColor=none;rounded=1;" vertex="1" parent="1">
          <mxGeometry x="343" y="285" width="20" height="20" as="geometry" />
        </mxCell>
        <mxCell id="CF9B0NUYfr-MQ1ip8N0y-9" value="" style="ellipse;whiteSpace=wrap;html=1;fontSize=28;strokeWidth=3;hachureGap=4;fontFamily=Architects Daughter;fontSource=https%3A%2F%2Ffonts.googleapis.com%2Fcss%3Ffamily%3DArchitects%2BDaughter;labelBackgroundColor=none;rounded=1;" vertex="1" parent="1">
          <mxGeometry x="460" y="285" width="20" height="20" as="geometry" />
        </mxCell>
        <mxCell id="CF9B0NUYfr-MQ1ip8N0y-10" value="&lt;h1 style=&quot;line-height: 90%;&quot;&gt;28 de mayo de&amp;nbsp;&lt;/h1&gt;&lt;h1 style=&quot;line-height: 90%;&quot;&gt;2024&lt;/h1&gt;&lt;div style=&quot;line-height: 90%;&quot;&gt;&lt;span style=&quot;font-size: 16px; text-wrap: nowrap;&quot;&gt;&lt;b&gt;Kick Off del Proceso&amp;nbsp;&lt;/b&gt;&lt;/span&gt;&lt;/div&gt;&lt;div style=&quot;line-height: 90%;&quot;&gt;&lt;span style=&quot;font-size: 16px; text-wrap: nowrap;&quot;&gt;&lt;b&gt;de Asistencias&lt;/b&gt;&lt;/span&gt;&lt;br&gt;&lt;/div&gt;" style="text;html=1;spacing=5;spacingTop=-20;overflow=hidden;strokeColor=none;strokeWidth=3;fontSize=13;align=center;rounded=1;fontFamily=Architects Daughter;fontSource=https%3A%2F%2Ffonts.googleapis.com%2Fcss%3Ffamily%3DArchitects%2BDaughter;labelBackgroundColor=none;whiteSpace=wrap;opacity=60;" vertex="1" parent="1">
          <mxGeometry x="10.75" y="320" width="219.25" height="130" as="geometry" />
        </mxCell>
        <mxCell id="CF9B0NUYfr-MQ1ip8N0y-12" value="&lt;h1 style=&quot;line-height: 90%;&quot;&gt;29 de noviembre de 2024&amp;nbsp;&lt;/h1&gt;&lt;h1 style=&quot;text-wrap: nowrap; font-size: 16px; line-height: 90%;&quot;&gt;- Asistencias de equipajes&lt;/h1&gt;&lt;h1 style=&quot;line-height: 90%;&quot;&gt;&lt;p style=&quot;text-wrap: nowrap; font-size: 16px; line-height: 90%;&quot;&gt;-Compensaciones&lt;/p&gt;&lt;/h1&gt;" style="text;html=1;spacing=5;spacingTop=-20;whiteSpace=wrap;overflow=hidden;strokeColor=none;strokeWidth=3;fontSize=13;align=center;rounded=1;fontFamily=Architects Daughter;fontSource=https%3A%2F%2Ffonts.googleapis.com%2Fcss%3Ffamily%3DArchitects%2BDaughter;labelBackgroundColor=none;opacity=80;" vertex="1" parent="1">
          <mxGeometry x="245.5" y="320" width="215" height="131" as="geometry" />
        </mxCell>
        <mxCell id="CF9B0NUYfr-MQ1ip8N0y-13" value="&lt;h1 style=&quot;text-wrap: nowrap; font-size: 16px; line-height: 80%;&quot;&gt;&lt;span style=&quot;background-color: initial;&quot;&gt;- Asistencia de vuelos&lt;/span&gt;&lt;br&gt;&lt;/h1&gt;&lt;h1 style=&quot;text-wrap: nowrap; font-size: 16px; line-height: 11.2px;&quot;&gt;- Otras asistencias&lt;/h1&gt;&lt;div&gt;&lt;h1 style=&quot;text-wrap: nowrap; font-size: 16px; line-height: 11.2px;&quot;&gt;&lt;b&gt;- Claims&lt;/b&gt;&lt;br&gt;&lt;/h1&gt;&lt;/div&gt;&lt;div style=&quot;line-height: 80%;&quot;&gt;&lt;h1 style=&quot;line-height: 80%;&quot;&gt;31 de enero de 2025&lt;/h1&gt;&lt;/div&gt;" style="text;html=1;spacing=5;spacingTop=-20;whiteSpace=wrap;overflow=hidden;strokeColor=none;strokeWidth=3;fontSize=13;align=center;rounded=1;fontFamily=Architects Daughter;fontSource=https%3A%2F%2Ffonts.googleapis.com%2Fcss%3Ffamily%3DArchitects%2BDaughter;labelBackgroundColor=none;" vertex="1" parent="1">
          <mxGeometry x="362.5" y="154" width="215" height="126" as="geometry" />
        </mxCell>
        <mxCell id="CF9B0NUYfr-MQ1ip8N0y-14" value="&lt;div style=&quot;language:es-CO;margin-top:0pt;margin-bottom:0pt;&lt;br/&gt;margin-left:.38in;text-indent:-.38in&quot; class=&quot;O0&quot;&gt;&lt;br&gt;&lt;/div&gt;" style="text;html=1;align=center;verticalAlign=middle;resizable=0;points=[];autosize=1;strokeColor=none;fillColor=none;labelBackgroundColor=none;rounded=1;" vertex="1" parent="1">
          <mxGeometry x="220" y="538" width="20" height="30" as="geometry" />
        </mxCell>
        <mxCell id="CF9B0NUYfr-MQ1ip8N0y-15" value="&lt;p style=&quot;line-height: 110%;&quot;&gt;&lt;/p&gt;&lt;pre style=&quot;line-height: 110%; font-size: 20px;&quot;&gt;&lt;div style=&quot;&quot;&gt;&lt;span style=&quot;background-color: initial; font-family: &amp;quot;Times New Roman&amp;quot;; white-space: normal;&quot;&gt;- Despliegue en pruebas.&lt;/span&gt;&lt;/div&gt;&lt;span&gt;&lt;div style=&quot;&quot;&gt;&lt;span style=&quot;background-color: initial; font-family: &amp;quot;Architects Daughter&amp;quot;; white-space: normal;&quot;&gt;&lt;font face=&quot;J3E2SG38219imC5RADVf&quot;&gt;&amp;nbsp;- Flujo Primer contacto.&lt;span style=&quot;background-color: initial;&quot;&gt;&amp;nbsp;&lt;/span&gt;&lt;/font&gt;&lt;/span&gt;&lt;/div&gt;&lt;/span&gt;&lt;span style=&quot;background-color: initial;&quot;&gt;&lt;div style=&quot;&quot;&gt;&lt;span style=&quot;background-color: initial; font-family: &amp;quot;Architects Daughter&amp;quot;; white-space: normal;&quot;&gt;&lt;font face=&quot;J3E2SG38219imC5RADVf&quot;&gt;- Asistencias Médicas.&lt;/font&gt;&lt;/span&gt;&lt;/div&gt;&lt;/span&gt;&lt;span style=&quot;text-decoration-line: line-through; background-color: initial;&quot;&gt;&lt;div style=&quot;&quot;&gt;&lt;span style=&quot;background-color: initial; font-family: &amp;quot;Architects Daughter&amp;quot;; white-space: normal;&quot;&gt;&lt;font face=&quot;J3E2SG38219imC5RADVf&quot;&gt;- Váucher&lt;/font&gt;&lt;/span&gt;&lt;/div&gt;&lt;/span&gt;&lt;span style=&quot;text-decoration-line: line-through; background-color: initial;&quot;&gt;&lt;div style=&quot;&quot;&gt;&lt;span style=&quot;background-color: initial; font-family: &amp;quot;Architects Daughter&amp;quot;; white-space: normal;&quot;&gt;&lt;font face=&quot;J3E2SG38219imC5RADVf&quot;&gt;- Consulta telefónica&lt;/font&gt;&lt;/span&gt;&lt;/div&gt;&lt;/span&gt;&lt;span style=&quot;text-decoration-line: line-through; background-color: initial;&quot;&gt;&lt;div style=&quot;&quot;&gt;&lt;span style=&quot;background-color: initial; font-family: &amp;quot;Architects Daughter&amp;quot;; white-space: normal;&quot;&gt;&lt;font face=&quot;J3E2SG38219imC5RADVf&quot;&gt;- Proveedores.&amp;nbsp;&lt;/font&gt;&lt;/span&gt;&lt;/div&gt;&lt;/span&gt;&lt;div style=&quot;&quot;&gt;&lt;span style=&quot;background-color: initial; font-family: &amp;quot;Architects Daughter&amp;quot;; white-space: normal;&quot;&gt;&lt;font style=&quot;&quot; face=&quot;J3E2SG38219imC5RADVf&quot;&gt;&lt;strike&gt;- &lt;/strike&gt;Facturación&lt;strike&gt;,&lt;/strike&gt;&lt;/font&gt;&lt;/span&gt;&lt;/div&gt;&lt;font face=&quot;J3E2SG38219imC5RADVf&quot; style=&quot;font-size: 20px;&quot;&gt;&lt;div style=&quot;&quot;&gt;&lt;span style=&quot;background-color: initial; white-space: normal;&quot;&gt;31 de octubre de 2024&lt;/span&gt;&lt;/div&gt;&lt;/font&gt;&lt;/pre&gt;&lt;p&gt;&lt;/p&gt;" style="text;html=1;spacing=5;spacingTop=-20;whiteSpace=wrap;overflow=hidden;strokeColor=none;strokeWidth=3;fontSize=13;align=center;rounded=1;fontFamily=Architects Daughter;fontSource=https%3A%2F%2Ffonts.googleapis.com%2Fcss%3Ffamily%3DArchitects%2BDaughter;labelBackgroundColor=none;fontStyle=1" vertex="1" parent="1">
          <mxGeometry x="120" y="77" width="225" height="223" as="geometry" />
        </mxCell>
        <mxCell id="CF9B0NUYfr-MQ1ip8N0y-16" value="" style="ellipse;whiteSpace=wrap;html=1;fontSize=28;strokeWidth=3;hachureGap=4;fontFamily=Architects Daughter;fontSource=https%3A%2F%2Ffonts.googleapis.com%2Fcss%3Ffamily%3DArchitects%2BDaughter;labelBackgroundColor=none;rounded=1;" vertex="1" parent="1">
          <mxGeometry x="620" y="285" width="20" height="20" as="geometry" />
        </mxCell>
        <mxCell id="CF9B0NUYfr-MQ1ip8N0y-19" value="&lt;h1 style=&quot;line-height: 90%;&quot;&gt;28 de febrero de 2025&lt;/h1&gt;&lt;h1 style=&quot;text-wrap: nowrap; line-height: 90%; font-size: 16px;&quot;&gt;&lt;font style=&quot;font-size: 16px;&quot;&gt;&lt;span style=&quot;background-color: initial;&quot;&gt;-&lt;font style=&quot;font-size: 16px;&quot;&gt;Migración SAP&lt;br&gt;&lt;/font&gt;&lt;/span&gt;&lt;/font&gt;&lt;/h1&gt;&lt;h1 style=&quot;text-wrap: nowrap; font-size: 16px; line-height: 11.2px;&quot;&gt;- Pagos&lt;/h1&gt;" style="text;html=1;spacing=5;spacingTop=-20;whiteSpace=wrap;overflow=hidden;strokeColor=none;strokeWidth=3;fontSize=13;align=center;rounded=1;fontFamily=Architects Daughter;fontSource=https%3A%2F%2Ffonts.googleapis.com%2Fcss%3Ffamily%3DArchitects%2BDaughter;labelBackgroundColor=none;" vertex="1" parent="1">
          <mxGeometry x="512.5" y="310" width="235" height="142" as="geometry" />
        </mxCell>
        <mxCell id="CF9B0NUYfr-MQ1ip8N0y-21" value="" style="ellipse;whiteSpace=wrap;html=1;fontSize=28;strokeWidth=3;hachureGap=4;fontFamily=Architects Daughter;fontSource=https%3A%2F%2Ffonts.googleapis.com%2Fcss%3Ffamily%3DArchitects%2BDaughter;labelBackgroundColor=none;rounded=1;" vertex="1" parent="1">
          <mxGeometry x="770" y="285" width="20" height="20" as="geometry" />
        </mxCell>
        <mxCell id="CF9B0NUYfr-MQ1ip8N0y-22" value="&lt;h1 style=&quot;text-wrap: nowrap; line-height: 11.2px; font-size: 16px;&quot;&gt;&lt;font style=&quot;font-size: 16px;&quot;&gt;&lt;span style=&quot;background-color: initial;&quot;&gt;-Migración SAP&lt;/span&gt;&lt;span style=&quot;background-color: initial;&quot;&gt;&lt;br&gt;&lt;/span&gt;&lt;/font&gt;&lt;/h1&gt;&lt;div style=&quot;font-size: 16px;&quot;&gt;&lt;b&gt;&lt;font style=&quot;font-size: 16px;&quot;&gt;- Pruebas de QA&lt;/font&gt;&lt;/b&gt;&lt;/div&gt;&lt;h1 style=&quot;text-wrap: nowrap; line-height: 11.2px; font-size: 16px;&quot;&gt;&lt;b style=&quot;background-color: initial; text-wrap: wrap;&quot;&gt;&lt;font style=&quot;font-size: 16px;&quot;&gt;- Resolución de Hallazgos&lt;/font&gt;&lt;/b&gt;&lt;span style=&quot;font-size: 16px; background-color: initial;&quot;&gt;&amp;nbsp;&lt;/span&gt;&lt;br&gt;&lt;/h1&gt;&lt;div style=&quot;line-height: 80%;&quot;&gt;&lt;h1 style=&quot;line-height: 80%;&quot;&gt;31 de marzo de 2025&lt;/h1&gt;&lt;/div&gt;" style="text;html=1;spacing=5;spacingTop=-20;whiteSpace=wrap;overflow=hidden;strokeColor=none;strokeWidth=3;fontSize=13;align=center;rounded=1;fontFamily=Architects Daughter;fontSource=https%3A%2F%2Ffonts.googleapis.com%2Fcss%3Ffamily%3DArchitects%2BDaughter;labelBackgroundColor=none;" vertex="1" parent="1">
          <mxGeometry x="672.5" y="143" width="215" height="137" as="geometry" />
        </mxCell>
        <mxCell id="CF9B0NUYfr-MQ1ip8N0y-24" value="" style="ellipse;whiteSpace=wrap;html=1;fontSize=28;strokeWidth=3;hachureGap=4;fontFamily=Architects Daughter;fontSource=https%3A%2F%2Ffonts.googleapis.com%2Fcss%3Ffamily%3DArchitects%2BDaughter;labelBackgroundColor=none;rounded=1;" vertex="1" parent="1">
          <mxGeometry x="917.5" y="285" width="20" height="20" as="geometry" />
        </mxCell>
        <mxCell id="CF9B0NUYfr-MQ1ip8N0y-25" value="&lt;h1 style=&quot;line-height: 110%;&quot;&gt;30 de abril de 2025&lt;/h1&gt;&lt;h1 style=&quot;text-wrap: nowrap; font-size: 16px; line-height: 110%;&quot;&gt;- Despliegue en producción&lt;br&gt;-Reportes&lt;/h1&gt;" style="text;html=1;spacing=5;spacingTop=-20;whiteSpace=wrap;overflow=hidden;strokeColor=none;strokeWidth=3;fontSize=13;align=center;rounded=1;fontFamily=Architects Daughter;fontSource=https%3A%2F%2Ffonts.googleapis.com%2Fcss%3Ffamily%3DArchitects%2BDaughter;labelBackgroundColor=none;" vertex="1" parent="1">
          <mxGeometry x="810" y="310" width="235" height="120" as="geometry" />
        </mxCell>
        <mxCell id="CF9B0NUYfr-MQ1ip8N0y-27" value="" style="ellipse;whiteSpace=wrap;html=1;fontSize=28;strokeWidth=3;hachureGap=4;fontFamily=Architects Daughter;fontSource=https%3A%2F%2Ffonts.googleapis.com%2Fcss%3Ffamily%3DArchitects%2BDaughter;labelBackgroundColor=none;rounded=1;" vertex="1" parent="1">
          <mxGeometry x="1044.5" y="285" width="20" height="20" as="geometry" />
        </mxCell>
        <mxCell id="CF9B0NUYfr-MQ1ip8N0y-28" value="&lt;h1 style=&quot;text-wrap: nowrap; font-size: 16px; line-height: 11.2px;&quot;&gt;- Marcha Blanca&lt;br&gt;&lt;/h1&gt;&lt;h1 style=&quot;text-wrap: nowrap; font-size: 16px; line-height: 17.6px;&quot;&gt;- Reportes&lt;/h1&gt;&lt;div style=&quot;line-height: 80%;&quot;&gt;&lt;h1 style=&quot;line-height: 80%;&quot;&gt;31 de mayo de 2025&lt;/h1&gt;&lt;/div&gt;" style="text;html=1;spacing=5;spacingTop=-20;whiteSpace=wrap;overflow=hidden;strokeColor=none;strokeWidth=3;fontSize=13;align=center;rounded=1;fontFamily=Architects Daughter;fontSource=https%3A%2F%2Ffonts.googleapis.com%2Fcss%3Ffamily%3DArchitects%2BDaughter;labelBackgroundColor=none;" vertex="1" parent="1">
          <mxGeometry x="947" y="172" width="215" height="108" as="geometry" />
        </mxCell>
        <mxCell id="JtNahA1jcwBHOo8iho_V-1" value="" style="ellipse;whiteSpace=wrap;html=1;fontSize=28;strokeWidth=3;hachureGap=4;fontFamily=Architects Daughter;fontSource=https%3A%2F%2Ffonts.googleapis.com%2Fcss%3Ffamily%3DArchitects%2BDaughter;labelBackgroundColor=none;rounded=1;" vertex="1" parent="1">
          <mxGeometry x="1182" y="285" width="20" height="20" as="geometry" />
        </mxCell>
        <mxCell id="JtNahA1jcwBHOo8iho_V-2" value="&lt;h1 style=&quot;line-height: 110%;&quot;&gt;30 de junio de 2025&lt;/h1&gt;&lt;h1 style=&quot;text-wrap: nowrap; font-size: 16px; line-height: 11.2px;&quot;&gt;- Lanzamiento oficial&lt;/h1&gt;" style="text;html=1;spacing=5;spacingTop=-20;whiteSpace=wrap;overflow=hidden;strokeColor=none;strokeWidth=3;fontSize=13;align=center;rounded=1;fontFamily=Architects Daughter;fontSource=https%3A%2F%2Ffonts.googleapis.com%2Fcss%3Ffamily%3DArchitects%2BDaughter;labelBackgroundColor=none;" vertex="1" parent="1">
          <mxGeometry x="1074.5" y="312" width="235" height="118" as="geometry" />
        </mxCell>
      </root>
    </mxGraphModel>
  </diagram>
</mxfile>
